SplineFontDB: 3.2
FontName: M51-Regular
FullName: M51 Regular
FamilyName: M51
Weight: Regular
Copyright: 
Version: 
ItalicAngle: 0
UnderlinePosition: -150
UnderlineWidth: 50
Ascent: 750
Descent: 250
InvalidEm: 0
sfntRevision: 0x00010000
LayerCount: 2
Layer: 0 0 "Back" 1
Layer: 1 0 "Fore" 0
XUID: [1021 731 -2074760495 3092]
StyleMap: 0x0040
FSType: 0
OS2Version: 0
OS2_WeightWidthSlopeOnly: 0
OS2_UseTypoMetrics: 0
CreationTime: 1229875379
ModificationTime: 1714209626
PfmFamily: 33
TTFWeight: 500
TTFWidth: 5
LineGap: 0
VLineGap: 0
Panose: 2 11 6 9 3 4 3 2 2 0
OS2TypoAscent: 0
OS2TypoAOffset: 1
OS2TypoDescent: 0
OS2TypoDOffset: 1
OS2TypoLinegap: 0
OS2WinAscent: 150
OS2WinAOffset: 1
OS2WinDescent: 50
OS2WinDOffset: 1
HheadAscent: 150
HheadAOffset: 1
HheadDescent: -50
HheadDOffset: 1
OS2CapHeight: 650
OS2XHeight: 480
OS2Vendor: '    '
OS2CodePages: 600001df.ffdf0000
OS2UnicodeRanges: e60022ff.d200f9fb.02000028.00000000
MarkAttachClasses: 1
DEI: 91125
LangName: 1033 "" "" "" "" "" "1" "" "" "" "m31"
DesignSize: 160
Encoding: UnicodeBmp
Compacted: 1
UnicodeInterp: none
NameList: AGL For New Fonts
DisplaySize: -36
AntiAlias: 1
FitToEm: 0
WinInfo: 0 25 20
BeginPrivate: 5
BlueValues 39 [-12 0 472 480 642 650 668 680 696 708]
StdVW 5 [150]
StemSnapH 12 [80 100 110]
StemSnapV 9 [140 150]
FamilyBlues 31 [-12 0 470 486 642 660 712 724]
EndPrivate
TeXData: 1 16777216 0 629146 314573 209715 503316 1048576 209715 783286 444596 497025 792723 393216 433062 380633 303038 157286 324010 404750 52429 2506097 1059062 262144
BeginChars: 65536 95

StartChar: exclam
Encoding: 33 33 1
Width: 600
GlyphClass: 2
Flags: W
HStem: 0 150<200 400>
VStem: 200 200<0 150> 220 160<260 750>
LayerCount: 2
Fore
SplineSet
220 750 m 1xa0
 380 750 l 1
 380 260 l 1
 220 260 l 1
 220 750 l 1xa0
200 150 m 5xc0
 400 150 l 1
 400 0 l 1
 200 0 l 5
 200 150 l 5xc0
EndSplineSet
Validated: 1
EndChar

StartChar: quotedbl
Encoding: 34 34 2
Width: 600
GlyphClass: 2
Flags: W
HStem: 457 298<105 255 345 495>
VStem: 105 150<457 755> 345 150<457 755>
LayerCount: 2
Fore
SplineSet
495 755 m 1
 495 457 l 1
 345 457 l 1
 345 755 l 1
 495 755 l 1
255 755 m 5
 255 457 l 5
 105 457 l 5
 105 755 l 5
 255 755 l 5
EndSplineSet
Validated: 1
EndChar

StartChar: numbersign
Encoding: 35 35 3
Width: 600
GlyphClass: 2
Flags: WO
HStem: 180 80<55 140 250 350 460 545> 400 80<55 140 250 350 460 545>
VStem: 140 110<50 180 260 400 480 615> 350 110<50 180 260 400 480 615>
LayerCount: 2
Fore
SplineSet
250 615 m 5
 250 480 l 5
 350 480 l 1
 350 615 l 1
 461 615 l 1
 460 480 l 1
 545 480 l 1
 545 400 l 1
 460 400 l 1
 460 260 l 1
 545 260 l 1
 545 180 l 1
 460 180 l 1
 460 50 l 1
 350 50 l 1
 350 180 l 1
 250 180 l 5
 250 50 l 5
 140 50 l 1
 140 180 l 1
 55 180 l 1
 55 260 l 1
 140 260 l 1
 140 400 l 1
 55 400 l 1
 55 480 l 1
 140 480 l 1
 140 615 l 1
 250 615 l 5
350 400 m 1
 250 400 l 5
 250 260 l 5
 350 260 l 1
 350 400 l 1
EndSplineSet
EndChar

StartChar: dollar
Encoding: 36 36 4
Width: 600
GlyphClass: 2
Flags: W
HStem: 0 100<114 219> 515 100<380 465>
VStem: 105 150<384 515> 219 146<-135 0> 235 145<615 750> 345 150<100 245>
LayerCount: 2
Fore
SplineSet
160 329 m 1xc4
 105 384 l 1
 105 540 l 1xe4
 180 615 l 1
 235 615 l 1
 235 750 l 1
 380 750 l 1
 380 615 l 1xc8
 465 615 l 1
 465 515 l 1
 255 515 l 1
 255 384 l 1
 440 300 l 1
 495 245 l 1
 495 75 l 1xe4
 420 0 l 1
 365 0 l 1
 365 -135 l 1
 219 -135 l 1
 219 0 l 1xd0
 114 0 l 1
 114 100 l 1
 345 100 l 1
 345 247 l 1
 160 329 l 1xc4
EndSplineSet
Validated: 1
EndChar

StartChar: percent
Encoding: 37 37 5
Width: 600
GlyphClass: 2
Flags: W
HStem: 0 21G<350 470> 630 20G<120 240>
LayerCount: 2
Fore
SplineSet
450 0 m 1
 370 0 l 1
 310 60 l 1
 310 140 l 1
 370 200 l 1
 450 200 l 1
 510 140 l 1
 510 60 l 1
 450 0 l 1
220 450 m 1
 140 450 l 1
 80 510 l 1
 80 590 l 1
 140 650 l 1
 220 650 l 1
 280 590 l 1
 280 510 l 1
 220 450 l 1
226 50 m 5
 106 50 l 5
 361 600 l 1
 481 600 l 1
 226 50 l 5
EndSplineSet
Validated: 1
EndChar

StartChar: ampersand
Encoding: 38 38 6
Width: 600
GlyphClass: 2
Flags: W
HStem: 0 100<270 320> 610 100<245 335>
VStem: 100 125<488 590> 355 125<488 590>
LayerCount: 2
Fore
SplineSet
330 370 m 1
 185 225 l 1
 185 185 l 1
 270 100 l 1
 320 100 l 1
 400 180 l 1
 400 250 l 1
 550 250 l 1
 550 150 l 1
 390 0 l 1
 200 0 l 1
 60 140 l 1
 60 270 l 1
 180 390 l 1
 100 470 l 1
 100 630 l 1
 180 710 l 1
 400 710 l 1
 480 630 l 1
 480 470 l 1
 380 370 l 1
 330 370 l 1
335 468 m 1
 355 488 l 1
 355 590 l 1
 335 610 l 1
 245 610 l 1
 225 590 l 1
 225 488 l 1
 245 468 l 1
 335 468 l 1
EndSplineSet
Validated: 1
EndChar

StartChar: quotesingle
Encoding: 39 39 7
Width: 600
GlyphClass: 2
Flags: W
VStem: 205 210<365 725>
LayerCount: 2
Fore
SplineSet
415 725 m 1
 415 365 l 1
 205 365 l 1
 205 725 l 1
 415 725 l 1
EndSplineSet
Validated: 1
EndChar

StartChar: parenleft
Encoding: 40 40 8
Width: 600
GlyphClass: 2
Flags: W
VStem: 70 120<90 460>
LayerCount: 2
Fore
SplineSet
380 750 m 1
 245 620 l 1
 190 460 l 1
 190 90 l 5
 245 -70 l 5
 380 -200 l 1
 210 -200 l 1
 115 -80 l 5
 70 50 l 5
 70 500 l 1
 115 630 l 1
 210 750 l 1
 380 750 l 1
EndSplineSet
Validated: 1
EndChar

StartChar: parenright
Encoding: 41 41 9
Width: 600
GlyphClass: 2
Flags: W
VStem: 410 120<90 460>
LayerCount: 2
Fore
SplineSet
220 750 m 1
 390 750 l 1
 485 630 l 1
 530 500 l 1
 530 50 l 5
 485 -80 l 5
 390 -200 l 1
 220 -200 l 1
 355 -70 l 5
 410 90 l 5
 410 460 l 1
 355 620 l 1
 220 750 l 1
EndSplineSet
Validated: 1
EndChar

StartChar: asterisk
Encoding: 42 42 10
Width: 600
GlyphClass: 2
Flags: W
VStem: 245 110<224 402 562 750>
LayerCount: 2
Fore
SplineSet
555 575 m 1
 386 482 l 1
 560 398 l 1
 505 309 l 1
 355 402 l 1
 355 224 l 1
 245 224 l 1
 245 402 l 1
 95 299 l 1
 40 388 l 1
 214 482 l 1
 40 575 l 1
 95 675 l 1
 245 562 l 1
 245 750 l 1
 355 750 l 1
 355 562 l 1
 500 675 l 1
 555 575 l 1
EndSplineSet
Validated: 1
EndChar

StartChar: plus
Encoding: 43 43 11
Width: 600
GlyphClass: 2
Flags: W
HStem: 200 100<70 240 360 530> 460 20G<240 360>
VStem: 240 120<20 200 300 480>
LayerCount: 2
Fore
SplineSet
360 480 m 1
 360 300 l 1
 530 300 l 1
 530 200 l 1
 360 200 l 1
 360 20 l 1
 240 20 l 1
 240 200 l 1
 70 200 l 1
 70 300 l 1
 240 300 l 1
 240 480 l 1
 360 480 l 1
EndSplineSet
Validated: 1
EndChar

StartChar: comma
Encoding: 44 44 12
Width: 600
GlyphClass: 2
Flags: W
HStem: 100 125<140 290>
VStem: 290 160<-100 100>
LayerCount: 2
Fore
SplineSet
140 100 m 1
 140 225 l 1
 450 225 l 1
 450 -100 l 1
 290 -100 l 1
 290 100 l 1
 140 100 l 1
EndSplineSet
Validated: 1
EndChar

StartChar: hyphen
Encoding: 45 45 13
Width: 600
GlyphClass: 2
Flags: W
HStem: 200 100<80 520>
LayerCount: 2
Fore
SplineSet
80 300 m 25
 520 300 l 25
 520 200 l 25
 80 200 l 25
 80 300 l 25
EndSplineSet
Validated: 1
EndChar

StartChar: period
Encoding: 46 46 14
Width: 600
GlyphClass: 2
Flags: W
HStem: 0 175<200 400>
VStem: 200 200<0 175>
LayerCount: 2
Fore
SplineSet
200 175 m 5
 400 175 l 5
 400 0 l 5
 200 0 l 5
 200 175 l 5
EndSplineSet
Validated: 1
EndChar

StartChar: slash
Encoding: 47 47 15
Width: 600
GlyphClass: 2
Flags: W
HStem: -125 125<10 70> 625 125<460 520>
LayerCount: 2
Fore
SplineSet
380 750 m 5
 520 750 l 5
 520 625 l 5
 460 625 l 5
 150 -125 l 5
 10 -125 l 5
 10 0 l 5
 70 0 l 5
 380 750 l 5
EndSplineSet
Validated: 1
EndChar

StartChar: zero
Encoding: 48 48 16
Width: 600
GlyphClass: 2
Flags: W
HStem: 0 110<220 380> 540 110<220 380>
VStem: 70 150<110 290 370 540> 270 60<220 435> 380 150<110 290 370 540>
CounterMasks: 1 38
LayerCount: 2
Fore
SplineSet
270 435 m 1
 330 435 l 1
 330 220 l 1
 270 220 l 1
 270 435 l 1
170 0 m 1
 70 80 l 1
 70 290 l 1
 220 290 l 1
 220 110 l 1
 380 110 l 1
 380 290 l 1
 530 290 l 1
 530 80 l 1
 430 0 l 1
 170 0 l 1
380 540 m 1
 220 540 l 1
 220 370 l 1
 70 370 l 1
 70 570 l 1
 170 650 l 1
 430 650 l 1
 530 570 l 1
 530 370 l 1
 380 370 l 1
 380 540 l 1
EndSplineSet
Validated: 1
EndChar

StartChar: one
Encoding: 49 49 17
Width: 600
GlyphClass: 2
Flags: W
HStem: 0 21G<330 480> 630 20G<310 480>
VStem: 330 150<0 440>
LayerCount: 2
Fore
SplineSet
180 500 m 1
 330 650 l 1
 480 650 l 1
 480 0 l 1
 330 0 l 1
 330 440 l 1
 180 440 l 1
 180 500 l 1
EndSplineSet
Validated: 1
EndChar

StartChar: two
Encoding: 50 50 18
Width: 600
GlyphClass: 2
Flags: W
HStem: 0 115<230 470> 275 115<230 380> 535 115<130 380>
VStem: 80 150<115 275> 380 150<390 535>
LayerCount: 2
Fore
SplineSet
230 115 m 1
 470 115 l 1
 470 0 l 1
 215 0 l 1
 80 100 l 1
 80 284 l 1
 210 390 l 1
 380 390 l 1
 380 535 l 1
 130 535 l 1
 130 650 l 1
 395 650 l 1
 530 550 l 1
 530 375 l 1
 400 275 l 1
 230 275 l 1
 230 115 l 1
EndSplineSet
Validated: 1
EndChar

StartChar: three
Encoding: 51 51 19
Width: 600
GlyphClass: 2
Flags: W
HStem: 0 110<100 340> 275 110<100 350> 540 110<100 340>
VStem: 370 150<140 240 410 510>
LayerCount: 2
Fore
SplineSet
520 410 m 1
 440 330 l 1
 440 320 l 1
 520 240 l 5
 520 102 l 1
 388 0 l 1
 100 0 l 1
 100 110 l 1
 340 110 l 1
 370 140 l 1
 370 255 l 1
 350 275 l 1
 100 275 l 1
 100 385 l 1
 350 385 l 1
 370 405 l 1
 370 510 l 1
 340 540 l 1
 100 540 l 1
 100 650 l 1
 388 650 l 1
 520 548 l 1
 520 410 l 1
EndSplineSet
Validated: 1
EndChar

StartChar: four
Encoding: 52 52 20
Width: 600
GlyphClass: 2
Flags: W
HStem: 0 21G<380 530> 290 104<220 380> 650 20G<70 220 380 530>
VStem: 70 150<394 650> 380 150<0 290 394 650>
LayerCount: 2
Fore
SplineSet
380 290 m 1
 150 290 l 5
 150 370 l 5
 70 370 l 1
 70 650 l 1
 220 670 l 1
 220 394 l 1
 380 394 l 1
 380 670 l 1
 530 650 l 1
 530 0 l 1
 380 0 l 1
 380 290 l 1
EndSplineSet
Validated: 1
EndChar

StartChar: five
Encoding: 53 53 21
Width: 600
GlyphClass: 2
Flags: W
HStem: 0 110<160 380> 285 110<230 380> 540 110<230 445>
VStem: 80 150<395 540> 380 150<110 285>
LayerCount: 2
Fore
SplineSet
160 0 m 1
 160 110 l 1
 380 110 l 1
 380 285 l 5
 180 285 l 5
 80 385 l 5
 80 550 l 1
 230 650 l 1
 445 650 l 1
 445 540 l 1
 230 540 l 1
 230 395 l 5
 420 395 l 5
 530 295 l 5
 530 100 l 1
 380 0 l 1
 160 0 l 1
EndSplineSet
Validated: 1
EndChar

StartChar: six
Encoding: 54 54 22
Width: 600
GlyphClass: 2
Flags: W
HStem: 0 110<220 380> 300 110<220 380> 540 110<270 425>
VStem: 70 150<110 300> 70 140<410 500> 380 150<110 300>
LayerCount: 2
Fore
SplineSet
380 110 m 1xf4
 380 300 l 1
 220 300 l 1
 220 110 l 1
 380 110 l 1xf4
530 314 m 1
 530 102 l 1
 397 0 l 1
 213 0 l 1
 70 102 l 1
 70 540 l 1
 223 650 l 1
 425 650 l 1
 425 540 l 1
 270 540 l 1
 210 500 l 1
 210 410 l 1xec
 400 410 l 1
 530 314 l 1
EndSplineSet
Validated: 1
EndChar

StartChar: seven
Encoding: 55 55 23
Width: 600
GlyphClass: 2
Flags: W
HStem: 0 21G<125 294.091> 540 110<70 375>
LayerCount: 2
Fore
SplineSet
285 0 m 1
 125 0 l 1
 375 528 l 1
 375 540 l 1
 70 540 l 5
 70 650 l 5
 435 650 l 1
 535 550 l 1
 285 0 l 1
EndSplineSet
Validated: 1
EndChar

StartChar: eight
Encoding: 56 56 24
Width: 600
GlyphClass: 2
Flags: W
HStem: 0 100<220 380> 280 100<220 380> 550 100<220 380>
VStem: 70 150<100 280 380 550> 380 150<100 280 380 550>
LayerCount: 2
Fore
SplineSet
380 280 m 1
 220 280 l 1
 220 100 l 1
 380 100 l 1
 380 280 l 1
430 380 m 1
 430 280 l 1
 530 280 l 1
 530 80 l 1
 430 0 l 1
 170 0 l 1
 70 80 l 1
 70 280 l 1
 170 280 l 1
 170 380 l 1
 70 380 l 1
 70 570 l 1
 170 650 l 1
 430 650 l 1
 530 570 l 1
 530 380 l 1
 430 380 l 1
380 380 m 1
 380 550 l 1
 220 550 l 1
 220 380 l 1
 380 380 l 1
EndSplineSet
Validated: 1
EndChar

StartChar: nine
Encoding: 57 57 25
Width: 600
GlyphClass: 2
Flags: W
HStem: 0 110<110 360> 265 110<220 390> 540 110<220 390>
VStem: 70 150<375 540> 390 140<140 265 375 540>
LayerCount: 2
Fore
SplineSet
220 540 m 1
 220 375 l 1
 390 375 l 1
 390 540 l 1
 220 540 l 1
420 0 m 1
 110 0 l 1
 110 110 l 1
 360 110 l 1
 390 140 l 1
 390 265 l 1
 180 265 l 1
 70 375 l 1
 70 540 l 1
 180 650 l 5
 420 650 l 1
 530 540 l 1
 530 110 l 1
 420 0 l 1
EndSplineSet
Validated: 1
EndChar

StartChar: colon
Encoding: 58 58 26
Width: 600
GlyphClass: 2
Flags: W
HStem: 40 170<215 385> 290 180<215 385>
VStem: 215 170<40 210 290 470>
LayerCount: 2
Fore
SplineSet
215 470 m 5
 385 470 l 1
 385 290 l 1
 215 290 l 1
 215 470 l 5
215 210 m 1
 385 210 l 1
 385 40 l 1
 215 40 l 1
 215 210 l 1
EndSplineSet
Validated: 1
EndChar

StartChar: semicolon
Encoding: 59 59 27
Width: 600
GlyphClass: 2
Flags: W
HStem: -80 125<120 220> 330 150<170 370>
VStem: 170 200<330 480> 220 150<45 190>
LayerCount: 2
Fore
SplineSet
220 190 m 5xd0
 370 190 l 5
 370 20 l 5
 270 -80 l 5
 120 -80 l 5
 120 45 l 5
 220 45 l 5
 220 190 l 5xd0
170 480 m 5xe0
 370 480 l 5
 370 330 l 5
 170 330 l 5
 170 480 l 5xe0
EndSplineSet
Validated: 1
EndChar

StartChar: less
Encoding: 60 60 28
Width: 600
GlyphClass: 2
Flags: W
HStem: 0 21G<289.556 480>
LayerCount: 2
Fore
SplineSet
480 500 m 1
 210 250 l 5
 480 0 l 1
 310 0 l 1
 80 225 l 1
 80 275 l 1
 310 500 l 1
 480 500 l 1
EndSplineSet
Validated: 1
EndChar

StartChar: equal
Encoding: 61 61 29
Width: 600
GlyphClass: 2
Flags: W
HStem: 100 100<60 540> 300 100<60 540>
LayerCount: 2
Fore
SplineSet
60 200 m 1
 540 200 l 1
 540 100 l 1
 60 100 l 1
 60 200 l 1
60 400 m 1
 540 400 l 1
 540 300 l 1
 60 300 l 1
 60 400 l 1
EndSplineSet
Validated: 1
EndChar

StartChar: greater
Encoding: 62 62 30
Width: 600
GlyphClass: 2
Flags: W
HStem: 0 21G<120 310.444>
LayerCount: 2
Fore
SplineSet
120 500 m 1
 290 500 l 1
 520 275 l 1
 520 225 l 1
 290 0 l 1
 120 0 l 1
 390 250 l 1
 120 500 l 1
EndSplineSet
Validated: 1
EndChar

StartChar: question
Encoding: 63 63 31
Width: 600
GlyphClass: 2
Flags: W
HStem: 0 150<160 360> 640 110<100 260>
VStem: 160 200<0 150> 160 150<205 280> 340 140<475 560>
LayerCount: 2
Fore
SplineSet
310 205 m 1xd8
 160 205 l 1
 160 295 l 1
 340 475 l 1
 340 560 l 1
 260 640 l 1
 100 640 l 1
 100 750 l 1
 320 750 l 1
 480 590 l 1
 480 450 l 1
 310 280 l 1
 310 205 l 1xd8
160 150 m 1xe0
 360 150 l 5
 360 0 l 5
 160 0 l 1
 160 150 l 1xe0
EndSplineSet
Validated: 1
EndChar

StartChar: at
Encoding: 64 64 32
Width: 600
GlyphClass: 2
Flags: W
HStem: 0 100<250 470> 600 100<250 370>
VStem: 80 150<120 580> 370 150<250 600>
LayerCount: 2
Fore
SplineSet
470 0 m 1
 180 0 l 1
 80 100 l 1
 80 620 l 1
 160 700 l 1
 440 700 l 1
 520 620 l 5
 520 250 l 1
 370 250 l 1
 370 600 l 1
 250 600 l 1
 230 580 l 1
 230 120 l 1
 250 100 l 1
 470 100 l 1
 470 0 l 1
EndSplineSet
Validated: 1
EndChar

StartChar: A
Encoding: 65 65 33
Width: 600
GlyphClass: 2
Flags: W
HStem: 0 21G<70 220 380 530> 230 80<220 380> 650 20G<250 350>
VStem: 70 150<0 230 310 460> 380 150<0 230 310 460>
LayerCount: 2
Fore
SplineSet
530 0 m 1
 380 0 l 25
 380 230 l 25
 220 230 l 25
 220 0 l 25
 70 0 l 1
 70 470 l 1
 270 670 l 1
 330 670 l 1
 530 470 l 1
 530 0 l 1
380 460 m 5
 300 540 l 5
 220 460 l 5
 220 310 l 1
 380 310 l 1
 380 460 l 5
EndSplineSet
Validated: 1
EndChar

StartChar: B
Encoding: 66 66 34
Width: 600
GlyphClass: 2
Flags: W
HStem: 0 100<220 340> 310 80<220 390> 550 100<220 350>
VStem: 70 150<100 310 390 550> 390 150<150 290 410 510> 390 90<290 310 390 410>
LayerCount: 2
Fore
SplineSet
350 550 m 1xf8
 220 550 l 1
 220 390 l 1
 390 390 l 1xf4
 390 510 l 1
 350 550 l 1xf8
480 290 m 5
 540 290 l 5
 540 130 l 1
 410 0 l 1
 70 0 l 1
 70 650 l 1
 410 650 l 1
 540 520 l 1
 540 410 l 1xf8
 480 410 l 1
 480 290 l 5
220 310 m 1
 220 100 l 1
 340 100 l 1
 390 150 l 1xf8
 390 310 l 1xf4
 220 310 l 1
EndSplineSet
Validated: 1
EndChar

StartChar: C
Encoding: 67 67 35
Width: 600
GlyphClass: 2
Flags: W
HStem: 0 110<295 540> 540 110<295 530>
VStem: 70 150<185 465>
LayerCount: 2
Fore
SplineSet
540 0 m 1
 220 0 l 1
 70 150 l 1
 70 500 l 1
 220 650 l 1
 530 650 l 1
 530 540 l 1
 295 540 l 1
 220 465 l 1
 220 185 l 1
 295 110 l 1
 540 110 l 1
 540 0 l 1
EndSplineSet
Validated: 1
EndChar

StartChar: D
Encoding: 68 68 36
Width: 600
GlyphClass: 2
Flags: W
HStem: 0 100<220 320> 550 100<220 320>
VStem: 70 150<100 550> 410 150<240 410>
LayerCount: 2
Fore
SplineSet
70 650 m 1
 400 650 l 1
 560 420 l 1
 560 230 l 1
 390 0 l 1
 70 0 l 1
 70 650 l 1
220 100 m 1
 320 100 l 1
 410 240 l 1
 410 410 l 1
 320 550 l 1
 220 550 l 1
 220 100 l 1
EndSplineSet
Validated: 1
EndChar

StartChar: E
Encoding: 69 69 37
Width: 600
GlyphClass: 2
Flags: W
HStem: 0 110<230 530> 270 110<230 510> 540 110<230 525>
VStem: 80 150<110 270 380 540>
CounterMasks: 1 e0
LayerCount: 2
Fore
SplineSet
100 650 m 25
 525 650 l 29
 525 540 l 29
 230 540 l 25
 230 380 l 25
 510 380 l 29
 510 270 l 29
 230 270 l 25
 230 110 l 25
 530 110 l 29
 530 0 l 29
 110 0 l 25
 80 30 l 25
 80 620 l 25
 100 650 l 25
EndSplineSet
Validated: 1
EndChar

StartChar: F
Encoding: 70 70 38
Width: 600
GlyphClass: 2
Flags: W
HStem: 0 21G<80 230> 275 100<230 490> 543 107<230 540>
VStem: 80 150<0 275 375 543>
LayerCount: 2
Fore
SplineSet
540 650 m 1
 540 543 l 1
 230 543 l 1
 230 375 l 1
 490 375 l 1
 490 275 l 1
 230 275 l 1
 230 0 l 1
 80 0 l 1
 80 650 l 1
 540 650 l 1
EndSplineSet
Validated: 1
EndChar

StartChar: G
Encoding: 71 71 39
Width: 600
GlyphClass: 2
Flags: W
HStem: 0 110<300 430> 275 100<316 430> 540 110<330 512>
VStem: 60 150<220 420> 430 120<110 275>
CounterMasks: 1 e0
LayerCount: 2
Fore
SplineSet
220 0 m 25
 60 200 l 25
 60 450 l 1
 260 650 l 1
 512 650 l 25
 512 540 l 25
 330 540 l 1
 210 420 l 1
 210 220 l 25
 300 110 l 25
 430 110 l 25
 430 275 l 25
 316 275 l 25
 316 375 l 25
 550 375 l 25
 550 80 l 25
 470 0 l 25
 220 0 l 25
EndSplineSet
Validated: 1
EndChar

StartChar: H
Encoding: 72 72 40
Width: 600
GlyphClass: 2
Flags: W
HStem: 0 21G<70 220 380 530> 310 80<220 380> 630 20G<70 220 380 530>
VStem: 70 150<0 310 390 650> 380 150<0 310 390 650>
LayerCount: 2
Fore
SplineSet
70 650 m 1
 220 650 l 1
 220 390 l 1
 380 390 l 1
 380 650 l 1
 530 650 l 1
 530 0 l 1
 380 0 l 1
 380 310 l 1
 220 310 l 1
 220 0 l 1
 70 0 l 1
 70 650 l 1
EndSplineSet
Validated: 1
EndChar

StartChar: I
Encoding: 73 73 41
Width: 600
GlyphClass: 2
Flags: W
HStem: 0 85<70 225 375 530> 565 85<70 225 375 530>
VStem: 225 150<85 565>
LayerCount: 2
Fore
SplineSet
70 650 m 1
 530 650 l 1
 530 565 l 1
 375 565 l 1
 375 85 l 1
 530 85 l 1
 530 0 l 1
 70 0 l 1
 70 85 l 1
 225 85 l 1
 225 565 l 1
 70 565 l 1
 70 650 l 1
EndSplineSet
Validated: 1
EndChar

StartChar: J
Encoding: 74 74 42
Width: 600
GlyphClass: 2
Flags: W
HStem: 0 100<80 305> 550 100<150 370>
VStem: 370 150<175 550>
LayerCount: 2
Fore
SplineSet
370 550 m 1
 150 550 l 1
 150 650 l 1
 520 650 l 1
 520 150 l 1
 370 0 l 5
 80 0 l 1
 80 100 l 1
 305 100 l 1
 370 175 l 1
 370 550 l 1
EndSplineSet
Validated: 1
EndChar

StartChar: K
Encoding: 75 75 43
Width: 600
GlyphClass: 2
Flags: W
HStem: 0 21G<70 220 400 550> 320 100<220 260> 630 20G<70 220 400 550>
VStem: 70 150<0 320 420 650> 400 150<0 150 610 650>
LayerCount: 2
Fore
SplineSet
70 650 m 0
 220 650 l 0
 220 420 l 0
 280 420 l 0
 400 610 l 0
 400 650 l 0
 550 650 l 0
 550 591 l 0
 390 361 l 0
 390 350 l 0
 550 160 l 0
 550 0 l 0
 400 0 l 0
 400 150 l 0
 260 320 l 0
 220 320 l 0
 220 0 l 0
 70 0 l 0
 70 650 l 0
  Spiro
    70 650 v
    220 650 v
    220 420 v
    280 420 v
    400 610 v
    400 650 v
    550 650 v
    550 591 v
    390 361 v
    390 350 v
    550 160 v
    550 0 v
    400 0 v
    400 150 v
    260 320 v
    220 320 v
    220 0 v
    70 0 v
    0 0 z
  EndSpiro
EndSplineSet
Validated: 1
EndChar

StartChar: L
Encoding: 76 76 44
Width: 600
GlyphClass: 2
Flags: W
HStem: 0 110<245 550> 630 20G<95 245>
VStem: 95 150<110 650>
LayerCount: 2
Fore
SplineSet
95 650 m 1
 245 650 l 1
 245 110 l 5
 550 110 l 5
 550 0 l 1
 155 0 l 1
 95 60 l 1
 95 650 l 1
EndSplineSet
Validated: 1
EndChar

StartChar: M
Encoding: 77 77 45
Width: 600
GlyphClass: 2
Flags: W
HStem: 0 21G<50 200 400 550> 630 20G<50 168.75 431.25 550>
VStem: 50 150<0 490> 260 80<250 425> 400 150<0 490>
CounterMasks: 1 38
LayerCount: 2
Fore
SplineSet
50 650 m 25
 150 650 l 25
 300 490 l 25
 450 650 l 25
 550 650 l 25
 550 0 l 25
 400 0 l 25
 400 490 l 1
 340 425 l 1
 340 250 l 1
 260 250 l 1
 260 425 l 1
 200 490 l 1
 200 0 l 25
 50 0 l 25
 50 650 l 25
EndSplineSet
Validated: 1
EndChar

StartChar: N
Encoding: 78 78 46
Width: 600
GlyphClass: 2
Flags: W
HStem: 0 21G<70 220 380 530> 630 20G<70 220 380 530>
VStem: 70 150<0 362 512 650> 380 150<0 125 275 650>
LayerCount: 2
Fore
SplineSet
220 650 m 1
 220 512 l 1
 380 275 l 5
 380 650 l 5
 530 650 l 5
 530 0 l 5
 380 0 l 5
 380 125 l 5
 220 362 l 1
 220 0 l 1
 70 0 l 1
 70 650 l 1
 220 650 l 1
EndSplineSet
Validated: 1
EndChar

StartChar: O
Encoding: 79 79 47
Width: 600
GlyphClass: 2
Flags: W
HStem: 0 100<250 350> 550 100<250 350>
VStem: 60 150<150 500> 390 150<150 500>
LayerCount: 2
Fore
SplineSet
250 550 m 1
 225 525 l 1
 210 500 l 1
 210 150 l 1
 225 125 l 1
 250 100 l 1
 350 100 l 5
 375 125 l 1
 390 150 l 1
 390 500 l 1
 375 525 l 1
 350 550 l 5
 250 550 l 1
390 650 m 1
 480 590 l 1
 540 500 l 1
 540 150 l 1
 480 55 l 1
 390 0 l 1
 210 0 l 1
 120 55 l 1
 60 150 l 1
 60 500 l 1
 120 590 l 1
 210 650 l 1
 390 650 l 1
EndSplineSet
Validated: 1
EndChar

StartChar: P
Encoding: 80 80 48
Width: 600
GlyphClass: 2
Flags: W
HStem: 0 21G<70 220> 210 100<220 340> 550 100<220 340>
VStem: 70 150<0 210 310 550> 400 150<370 490>
LayerCount: 2
Fore
SplineSet
550 350 m 1
 410 210 l 1
 220 210 l 1
 220 0 l 1
 70 0 l 1
 70 650 l 1
 410 650 l 1
 550 510 l 1
 550 350 l 1
400 370 m 1
 400 490 l 5
 340 550 l 1
 220 550 l 1
 220 310 l 1
 340 310 l 1
 400 370 l 1
EndSplineSet
Validated: 1
EndChar

StartChar: Q
Encoding: 81 81 49
Width: 600
GlyphClass: 2
Flags: W
HStem: 0 21G<159.182 330> 550 100<250 350>
VStem: 70 150<110 520> 380 150<130 520>
LayerCount: 2
Fore
SplineSet
240 130 m 1
 380 130 l 1
 380 520 l 1
 350 550 l 1
 250 550 l 1
 220 520 l 1
 220 110 l 1
 330 0 l 1
 179 0 l 1
 70 110 l 1
 70 540 l 1
 180 650 l 1
 420 650 l 1
 530 540 l 1
 530 110 l 1
 480 60 l 1
 580 -50 l 1
 420 -50 l 1
 240 130 l 1
EndSplineSet
Validated: 1
EndChar

StartChar: R
Encoding: 82 82 50
Width: 600
GlyphClass: 2
Flags: W
HStem: 0 21G<70 220 400 550> 250 80<220 250> 550 100<220 330>
VStem: 70 150<0 250 330 550> 390 140<410 490> 400 150<0 100>
LayerCount: 2
Fore
SplineSet
220 250 m 25xf4
 220 0 l 25
 70 0 l 25
 70 650 l 25
 390 650 l 25
 530 510 l 25
 530 380 l 25xf8
 410 260 l 25
 550 120 l 25
 550 0 l 25
 400 0 l 1
 400 100 l 1
 250 250 l 1
 220 250 l 25xf4
310 330 m 29
 390 410 l 25
 390 490 l 25
 330 550 l 25
 220 550 l 25
 220 330 l 25
 310 330 l 29
EndSplineSet
Validated: 1
EndChar

StartChar: S
Encoding: 83 83 51
Width: 600
GlyphClass: 2
Flags: W
HStem: 0 120<70 380> 295 110<220 380> 530 120<220 530>
VStem: 70 150<405 530> 380 150<120 295>
LayerCount: 2
Fore
SplineSet
530 650 m 1
 530 530 l 1
 220 530 l 1
 220 405 l 1
 420 405 l 1
 530 295 l 1
 530 100 l 1
 430 0 l 1
 70 0 l 1
 70 120 l 1
 380 120 l 1
 380 295 l 1
 180 295 l 1
 70 405 l 1
 70 550 l 1
 170 650 l 1
 530 650 l 1
EndSplineSet
Validated: 1
EndChar

StartChar: T
Encoding: 84 84 52
Width: 600
GlyphClass: 2
Flags: W
HStem: 0 21G<225 375> 540 110<25 225 375 575>
VStem: 225 150<0 540>
LayerCount: 2
Fore
SplineSet
575 650 m 1
 575 540 l 1
 375 540 l 1
 375 0 l 1
 225 0 l 1
 225 540 l 1
 25 540 l 1
 25 650 l 1
 575 650 l 1
EndSplineSet
Validated: 1
EndChar

StartChar: U
Encoding: 85 85 53
Width: 600
GlyphClass: 2
Flags: W
HStem: 0 100<220 380> 630 20G<70 220 380 530>
VStem: 70 150<100 650> 380 150<100 650>
LayerCount: 2
Fore
SplineSet
530 100 m 1
 430 0 l 1
 170 0 l 1
 70 100 l 1
 70 650 l 1
 220 650 l 1
 220 100 l 5
 380 100 l 5
 380 650 l 1
 530 650 l 1
 530 100 l 1
EndSplineSet
Validated: 1
EndChar

StartChar: V
Encoding: 86 86 54
Width: 600
GlyphClass: 2
Flags: W
HStem: 0 21G<184.839 415.161> 630 20G<30 185 415 570>
LayerCount: 2
Fore
SplineSet
570 620 m 1
 410 0 l 1
 190 0 l 1
 30 620 l 1
 30 650 l 1
 185 650 l 1
 185 620 l 1
 290 100 l 1
 310 100 l 1
 415 620 l 1
 415 650 l 1
 570 650 l 1
 570 620 l 1
EndSplineSet
Validated: 1
EndChar

StartChar: W
Encoding: 87 87 55
Width: 600
GlyphClass: 2
Flags: W
HStem: 0 100<200 270 330 400> 630 20G<50 200 400 550>
VStem: 50 150<100 650> 270 60<100 450> 400 150<100 650>
CounterMasks: 1 38
LayerCount: 2
Fore
SplineSet
50 650 m 1
 200 650 l 1
 200 100 l 1
 270 100 l 1
 270 450 l 5
 330 450 l 5
 330 100 l 1
 400 100 l 1
 400 650 l 1
 550 650 l 1
 550 80 l 1
 450 0 l 1
 150 0 l 1
 50 80 l 1
 50 650 l 1
EndSplineSet
Validated: 1
EndChar

StartChar: X
Encoding: 88 88 56
Width: 600
GlyphClass: 2
Flags: W
HStem: 0 21G<70 220 380 530> 630 20G<70 220 380 530>
VStem: 70 150<0 195 545 650> 380 150<0 195 545 650>
LayerCount: 2
Fore
SplineSet
530 650 m 1
 530 515 l 1
 380 365 l 1
 530 215 l 1
 530 0 l 1
 380 0 l 1
 380 195 l 1
 300 295 l 1
 220 195 l 1
 220 0 l 1
 70 0 l 1
 70 215 l 1
 220 365 l 1
 70 515 l 1
 70 650 l 1
 220 650 l 1
 220 545 l 5
 300 445 l 5
 380 545 l 5
 380 650 l 1
 530 650 l 1
EndSplineSet
Validated: 1
EndChar

StartChar: Y
Encoding: 89 89 57
Width: 600
GlyphClass: 2
Flags: W
HStem: 0 21G<225 375> 630 20G<60 210 390 540>
VStem: 60 150<500 650> 225 150<0 325> 390 150<500 650>
CounterMasks: 1 38
LayerCount: 2
Fore
SplineSet
60 650 m 25
 210 650 l 25
 210 500 l 29
 300 410 l 29
 390 500 l 29
 390 650 l 25
 540 650 l 25
 540 490 l 29
 375 325 l 29
 375 0 l 25
 225 0 l 25
 225 325 l 29
 60 490 l 29
 60 650 l 25
EndSplineSet
Validated: 1
EndChar

StartChar: Z
Encoding: 90 90 58
Width: 600
GlyphClass: 2
Flags: W
HStem: 0 100<227 520> 550 100<80 373>
LayerCount: 2
Fore
SplineSet
80 650 m 1
 445 650 l 5
 445 600 l 1
 520 600 l 1
 520 512 l 1
 227 100 l 1
 520 100 l 1
 520 0 l 1
 155 0 l 1
 155 50 l 1
 80 50 l 1
 80 138 l 1
 373 550 l 1
 80 550 l 1
 80 650 l 1
EndSplineSet
Validated: 1
EndChar

StartChar: bracketleft
Encoding: 91 91 59
Width: 600
GlyphClass: 2
Flags: W
HStem: -250 100<200 400> 650 100<200 400>
VStem: 80 120<-150 650>
LayerCount: 2
Fore
SplineSet
80 750 m 1
 400 750 l 5
 400 650 l 5
 200 650 l 1
 200 -150 l 1
 400 -150 l 5
 400 -250 l 5
 80 -250 l 1
 80 750 l 1
EndSplineSet
Validated: 1
EndChar

StartChar: backslash
Encoding: 92 92 60
Width: 600
GlyphClass: 2
Flags: W
HStem: -125 125<530 590> 625 125<80 140>
LayerCount: 2
Fore
SplineSet
220 750 m 5
 530 0 l 5
 590 0 l 5
 590 -125 l 5
 450 -125 l 5
 140 625 l 5
 80 625 l 5
 80 750 l 5
 220 750 l 5
EndSplineSet
Validated: 1
EndChar

StartChar: bracketright
Encoding: 93 93 61
Width: 600
GlyphClass: 2
Flags: W
HStem: -250 100<200 400> 650 100<200 400>
VStem: 400 120<-150 650>
LayerCount: 2
Fore
SplineSet
520 -250 m 1
 200 -250 l 5
 200 -150 l 5
 400 -150 l 1
 400 650 l 1
 200 650 l 5
 200 750 l 5
 520 750 l 1
 520 -250 l 1
EndSplineSet
Validated: 1
EndChar

StartChar: asciicircum
Encoding: 94 94 62
Width: 600
GlyphClass: 2
Flags: W
HStem: 394 331
LayerCount: 2
Fore
SplineSet
339 725 m 1
 566 490 l 1
 479 394 l 1
 300 596 l 1
 123 394 l 1
 34 490 l 1
 261 725 l 1
 339 725 l 1
EndSplineSet
Validated: 1
EndChar

StartChar: underscore
Encoding: 95 95 63
Width: 600
GlyphClass: 2
Flags: W
HStem: -20 60<60 540>
LayerCount: 2
Fore
SplineSet
540 40 m 1
 540 -20 l 1
 60 -20 l 1
 60 40 l 1
 540 40 l 1
EndSplineSet
Validated: 1
EndChar

StartChar: grave
Encoding: 96 96 64
Width: 600
GlyphClass: 2
Flags: W
HStem: 445 305<360 480>
LayerCount: 2
Fore
SplineSet
480 750 m 5
 480 445 l 5
 360 445 l 5
 100 750 l 5
 480 750 l 5
EndSplineSet
Validated: 1
EndChar

StartChar: a
Encoding: 97 97 65
Width: 600
GlyphClass: 2
Flags: W
HStem: 0 80<220 395> 210 80<220 380> 395 85<110 360>
VStem: 70 150<80 210> 380 150<290 375> 395 135<80 210>
LayerCount: 2
Fore
SplineSet
395 210 m 1xf4
 220 210 l 1
 220 80 l 1
 395 80 l 1
 395 210 l 1xf4
530 0 m 25
 150 0 l 25
 70 80 l 25
 70 210 l 25
 150 290 l 25
 380 290 l 25
 380 375 l 25xf8
 360 395 l 25
 110 395 l 25
 110 480 l 17
 405 480 l 1
 483 439 l 1
 530 380 l 1
 530 0 l 25
EndSplineSet
Validated: 1
EndChar

StartChar: b
Encoding: 98 98 66
Width: 600
GlyphClass: 2
Flags: W
HStem: 0 80<220 350> 400 80<270 350>
VStem: 70 150<80 380 460 660> 380 150<110 370>
LayerCount: 2
Fore
SplineSet
530 370 m 25
 530 100 l 25
 430 0 l 17
 130 0 l 1
 70 60 l 9
 70 660 l 25
 220 660 l 25
 220 460 l 25
 270 480 l 25
 420 480 l 25
 530 370 l 25
350 400 m 25
 270 400 l 25
 220 380 l 25
 220 80 l 25
 350 80 l 25
 380 110 l 25
 380 370 l 25
 350 400 l 25
EndSplineSet
Validated: 1
EndChar

StartChar: c
Encoding: 99 99 67
Width: 600
GlyphClass: 2
Flags: W
HStem: 0 88<255 530> 392 88<255 530>
VStem: 70 155<118 362>
LayerCount: 2
Fore
SplineSet
180 0 m 1
 70 110 l 1
 70 370 l 1
 180 480 l 1
 530 480 l 1
 530 392 l 1
 255 392 l 1
 225 362 l 1
 225 118 l 1
 255 88 l 1
 530 88 l 1
 530 0 l 1
 180 0 l 1
EndSplineSet
Validated: 1
EndChar

StartChar: d
Encoding: 100 100 68
Width: 600
GlyphClass: 2
Flags: W
HStem: 0 80<250 380> 400 80<260 380>
VStem: 70 150<115 360> 380 150<80 400 480 660>
LayerCount: 2
Fore
SplineSet
70 360 m 25
 190 480 l 25
 380 480 l 25
 380 660 l 25
 530 660 l 25
 530 0 l 25
 185 0 l 25
 70 115 l 25
 70 360 l 25
220 360 m 25
 220 110 l 17
 250 80 l 1
 380 80 l 9
 380 400 l 25
 260 400 l 25
 220 360 l 25
EndSplineSet
Validated: 1
EndChar

StartChar: e
Encoding: 101 101 69
Width: 600
GlyphClass: 2
Flags: W
HStem: 0 95<250 480> 210 80<210 420> 390 90<230 380>
VStem: 60 150<135 210 290 370> 420 120<290 350>
LayerCount: 2
Fore
SplineSet
180 0 m 1
 60 120 l 1
 60 380 l 1
 160 480 l 1
 440 480 l 5
 540 380 l 5
 540 210 l 5
 210 210 l 1
 210 135 l 1
 250 95 l 1
 480 95 l 13
 480 0 l 21
 180 0 l 1
420 290 m 13
 420 350 l 21
 380 390 l 5
 230 390 l 1
 210 370 l 1
 210 290 l 1
 420 290 l 13
EndSplineSet
Validated: 1
EndChar

StartChar: f
Encoding: 102 102 70
Width: 600
GlyphClass: 2
Flags: W
HStem: 0 21G<100 250> 332 88<250 520> 550 100<350 540>
VStem: 100 150<0 332 420 450>
LayerCount: 2
Fore
SplineSet
540 550 m 5
 350 550 l 5
 250 450 l 5
 250 420 l 1
 520 420 l 1
 520 332 l 1
 250 332 l 1
 250 0 l 1
 100 0 l 1
 100 460 l 5
 290 650 l 5
 540 650 l 5
 540 550 l 5
EndSplineSet
Validated: 1
EndChar

StartChar: g
Encoding: 103 103 71
Width: 600
GlyphClass: 2
Flags: W
HStem: -150 100<70 380> 50 80<255 380> 400 80<245 380>
VStem: 70 150<170 375> 380 150<130 400> 390 140<-40 50>
LayerCount: 2
Fore
SplineSet
380 400 m 25xf8
 245 400 l 29
 220 375 l 29
 220 165 l 29
 255 130 l 29
 380 130 l 25
 380 400 l 25xf8
530 -50 m 25xf4
 430 -150 l 25
 70 -150 l 25
 70 -50 l 25
 380 -50 l 25xf8
 390 -40 l 25
 390 50 l 25
 190 50 l 5
 70 170 l 5
 70 375 l 5
 120 445 l 5
 200 480 l 5
 530 480 l 25
 530 -50 l 25xf4
EndSplineSet
Validated: 1
EndChar

StartChar: h
Encoding: 104 104 72
Width: 600
GlyphClass: 2
Flags: W
HStem: 0 21G<70 220 380 530> 400 80<280 360> 655 20G<70 220>
VStem: 70 150<0 355 435 675> 380 150<0 380>
LayerCount: 2
Fore
SplineSet
530 400 m 5
 530 0 l 5
 380 0 l 5
 380 380 l 5
 360 400 l 5
 280 400 l 1
 220 355 l 1
 220 0 l 1
 70 0 l 1
 70 675 l 1
 220 675 l 1
 220 435 l 1
 280 480 l 1
 450 480 l 5
 530 400 l 5
EndSplineSet
Validated: 1
EndChar

StartChar: i
Encoding: 105 105 73
Width: 600
GlyphClass: 2
Flags: W
HStem: 0 21G<290 440> 395 85<60 290> 580 145<275 440>
VStem: 275 165<580 725> 290 150<0 395>
LayerCount: 2
Fore
SplineSet
275 725 m 1xf0
 440 725 l 1
 440 580 l 1
 275 580 l 1
 275 725 l 1xf0
440 0 m 1xe8
 290 0 l 1
 290 395 l 1
 60 395 l 1
 60 480 l 1
 440 480 l 1
 440 0 l 1xe8
EndSplineSet
Validated: 1
EndChar

StartChar: j
Encoding: 106 106 74
Width: 600
GlyphClass: 2
Flags: W
HStem: -140 85<120 300> 405 75<100 350>
VStem: 350 150<-5 405>
LayerCount: 2
Fore
SplineSet
350 -5 m 29
 350 405 l 25
 100 405 l 25
 100 480 l 25
 500 480 l 25
 500 -15 l 25
 375 -140 l 25
 120 -140 l 25
 120 -55 l 29
 300 -55 l 29
 350 -5 l 29
EndSplineSet
Validated: 1
EndChar

StartChar: k
Encoding: 107 107 75
Width: 600
GlyphClass: 2
Flags: W
HStem: 0 21G<70 220 395.714 590> 460 20G<391 570> 660 20G<70 220>
VStem: 70 150<0 170 280 680>
LayerCount: 2
Fore
SplineSet
70 680 m 1
 220 680 l 1
 220 280 l 1
 410 480 l 1
 570 480 l 1
 370 280 l 1
 590 0 l 1
 410 0 l 1
 260 210 l 1
 220 170 l 1
 220 0 l 1
 70 0 l 1
 70 680 l 1
EndSplineSet
Validated: 1
EndChar

StartChar: l
Encoding: 108 108 76
Width: 600
GlyphClass: 2
Flags: W
HStem: 0 85<130 270 420 560> 600 80<120 270>
VStem: 270 150<85 600>
LayerCount: 2
Fore
SplineSet
130 0 m 1
 130 85 l 1
 270 85 l 1
 270 600 l 1
 120 600 l 5
 120 680 l 5
 420 680 l 1
 420 85 l 1
 560 85 l 1
 560 0 l 1
 130 0 l 1
EndSplineSet
Validated: 1
EndChar

StartChar: m
Encoding: 109 109 77
Width: 600
GlyphClass: 2
Flags: W
HStem: 0 21G<50 200 260 340 400 550> 400 80<200 260 340 400>
VStem: 50 150<0 400> 260 80<0 400> 400 150<0 400>
CounterMasks: 1 38
LayerCount: 2
Fore
SplineSet
260 0 m 1
 260 400 l 1
 200 400 l 1
 200 0 l 1
 50 0 l 1
 50 480 l 1
 470 480 l 5
 550 400 l 1
 550 0 l 1
 400 0 l 1
 400 400 l 1
 340 400 l 1
 340 0 l 1
 260 0 l 1
EndSplineSet
Validated: 1
EndChar

StartChar: n
Encoding: 110 110 78
Width: 600
GlyphClass: 2
Flags: W
HStem: 0 21G<70 220 380 530> 400 80<220 345>
VStem: 70 150<0 400> 380 150<0 365>
LayerCount: 2
Fore
SplineSet
530 392 m 0
 530 0 l 0
 380 0 l 0
 380 365 l 0
 345 400 l 0
 220 400 l 0
 220 0 l 0
 70 0 l 0
 70 480 l 0
 442 480 l 0
 530 392 l 0
EndSplineSet
Validated: 1
EndChar

StartChar: o
Encoding: 111 111 79
Width: 600
GlyphClass: 2
Flags: W
HStem: 0 82<250 350> 398 82<250 350>
VStem: 70 150<120 360> 380 150<120 360>
LayerCount: 2
Fore
SplineSet
250 398 m 17
 220 368 l 1
 220 112 l 5
 250 82 l 13
 350 82 l 21
 380 112 l 5
 380 368 l 1
 350 398 l 9
 250 398 l 17
390 480 m 1
 482 431 l 1
 530 360 l 1
 530 120 l 1
 484 46 l 1
 390 0 l 1
 210 0 l 1
 114 46 l 1
 70 120 l 1
 70 360 l 1
 114 431 l 1
 210 480 l 1
 390 480 l 1
EndSplineSet
Validated: 1
EndChar

StartChar: p
Encoding: 112 112 80
Width: 600
GlyphClass: 2
Flags: W
HStem: 25 80<220 355> 400 80<220 360>
VStem: 70 150<-150 25 105 400> 390 150<140 370>
LayerCount: 2
Fore
SplineSet
540 140 m 5
 425 25 l 5
 220 25 l 1
 220 -150 l 1
 70 -150 l 1
 70 480 l 1
 435 480 l 5
 540 375 l 5
 540 140 l 5
390 140 m 5
 390 370 l 5
 360 400 l 5
 220 400 l 1
 220 105 l 1
 355 105 l 5
 390 140 l 5
EndSplineSet
Validated: 1
EndChar

StartChar: q
Encoding: 113 113 81
Width: 600
GlyphClass: 2
Flags: W
HStem: 20 80<270 380> 400 80<250 380>
VStem: 70 150<150 370> 380 150<-150 20 100 400>
LayerCount: 2
Fore
SplineSet
70 140 m 5
 70 375 l 1
 175 480 l 1
 530 480 l 1
 530 -150 l 1
 380 -150 l 1
 380 20 l 5
 190 20 l 5
 70 140 l 5
220 150 m 5
 270 100 l 5
 380 100 l 5
 380 400 l 1
 250 400 l 1
 220 370 l 1
 220 150 l 5
EndSplineSet
Validated: 1
EndChar

StartChar: r
Encoding: 114 114 82
Width: 600
GlyphClass: 2
Flags: W
HStem: 0 21G<80 230> 370 110<230 530>
VStem: 80 150<0 370>
LayerCount: 2
Fore
SplineSet
230 370 m 25
 230 0 l 25
 80 0 l 17
 80 380 l 1
 180 380 l 1
 180 480 l 1
 530 480 l 5
 530 370 l 5
 230 370 l 25
EndSplineSet
Validated: 1
EndChar

StartChar: s
Encoding: 115 115 83
Width: 600
GlyphClass: 2
Flags: W
HStem: 0 90<70 385> 205 100<215 385> 390 90<215 530>
VStem: 70 145<305 390> 385 145<90 205>
LayerCount: 2
Fore
SplineSet
530 480 m 1
 530 390 l 1
 215 390 l 1
 215 305 l 1
 430 305 l 1
 530 205 l 1
 530 75 l 1
 455 0 l 1
 70 0 l 1
 70 90 l 1
 385 90 l 1
 385 205 l 1
 170 205 l 1
 70 305 l 1
 70 405 l 1
 145 480 l 1
 530 480 l 1
EndSplineSet
Validated: 1
EndChar

StartChar: t
Encoding: 116 116 84
Width: 600
GlyphClass: 2
Flags: W
HStem: 0 80<300 400> 375 85<35 110 300 550> 630 20G<150 300>
VStem: 130 150<100 375> 150 150<495 650>
LayerCount: 2
Fore
SplineSet
400 80 m 1xe8
 400 120 l 1
 550 120 l 1
 550 50 l 1
 500 0 l 1
 230 0 l 5
 130 100 l 1
 130 375 l 1xf0
 35 375 l 1
 35 460 l 1
 110 460 l 1
 150 495 l 1
 150 650 l 1
 300 650 l 1
 300 460 l 1xe8
 550 460 l 1
 550 375 l 1
 280 375 l 1
 280 100 l 1xf0
 300 80 l 1
 400 80 l 1xe8
EndSplineSet
Validated: 1
EndChar

StartChar: u
Encoding: 117 117 85
Width: 600
GlyphClass: 2
Flags: W
HStem: 0 80<245 380> 460 20G<70 220 380 530>
VStem: 70 150<105 480> 380 150<80 480>
LayerCount: 2
Fore
SplineSet
530 0 m 1
 170 0 l 1
 70 100 l 1
 70 480 l 1
 220 480 l 1
 220 105 l 5
 245 80 l 1
 380 80 l 1
 380 480 l 1
 530 480 l 1
 530 0 l 1
EndSplineSet
Validated: 1
EndChar

StartChar: v
Encoding: 118 118 86
Width: 600
GlyphClass: 2
Flags: W
HStem: 0 21G<202.083 397.917> 460 20G<20 197.027 442.973 580>
LayerCount: 2
Fore
SplineSet
390 0 m 1
 210 0 l 1
 20 480 l 1
 190 480 l 1
 320 110 l 1
 450 480 l 1
 580 480 l 1
 390 0 l 1
EndSplineSet
Validated: 1
EndChar

StartChar: w
Encoding: 119 119 87
Width: 600
GlyphClass: 2
Flags: W
HStem: 0 80<200 270 330 400> 460 20G<50 200 400 550>
VStem: 50 150<80 480> 270 60<80 350> 400 150<80 480>
CounterMasks: 1 38
LayerCount: 2
Fore
SplineSet
50 480 m 1
 200 480 l 1
 200 80 l 1
 270 80 l 9
 270 350 l 25
 330 350 l 25
 330 80 l 17
 400 80 l 1
 400 480 l 1
 550 480 l 1
 550 60 l 1
 470 60 l 1
 470 0 l 1
 130 0 l 1
 130 60 l 1
 50 60 l 1
 50 480 l 1
EndSplineSet
Validated: 1
EndChar

StartChar: x
Encoding: 120 120 88
Width: 600
GlyphClass: 2
Flags: W
HStem: 0 21G<80 230 370 520> 460 20G<90 240 360 510>
VStem: 80 150<0 80> 90 150<400 480> 360 150<400 480> 370 150<0 80>
LayerCount: 2
Fore
SplineSet
510 480 m 1xd8
 510 400 l 1xd8
 370 250 l 1
 520 80 l 1
 520 0 l 1
 370 0 l 1
 370 80 l 1
 300 163 l 1
 230 80 l 1
 230 0 l 1
 80 0 l 1
 80 80 l 1
 230 250 l 1xe4
 90 400 l 1
 90 480 l 1
 240 480 l 1
 240 400 l 1
 300 323 l 1
 360 400 l 1
 360 480 l 1
 510 480 l 1xd8
EndSplineSet
Validated: 1
EndChar

StartChar: y
Encoding: 121 121 89
Width: 600
GlyphClass: 2
Flags: W
HStem: -170 100<140 185> 460 20G<10 159.524 412.381 590>
LayerCount: 2
Fore
SplineSet
150 480 m 25
 300 165 l 25
 420 480 l 25
 590 480 l 1
 285 -170 l 5
 140 -170 l 25
 140 -70 l 25
 185 -70 l 25
 243 55 l 25
 10 480 l 25
 150 480 l 25
EndSplineSet
Validated: 1
EndChar

StartChar: z
Encoding: 122 122 90
Width: 600
GlyphClass: 2
Flags: W
HStem: 0 80<245 500> 400 80<100 345>
LayerCount: 2
Fore
SplineSet
100 480 m 1
 425 480 l 1
 500 405 l 1
 500 310 l 1
 245 122 l 1
 245 80 l 1
 500 80 l 1
 500 0 l 1
 175 0 l 1
 100 75 l 1
 100 170 l 1
 345 358 l 1
 345 400 l 1
 100 400 l 1
 100 480 l 1
EndSplineSet
Validated: 1
EndChar

StartChar: braceleft
Encoding: 123 123 91
Width: 600
GlyphClass: 2
Flags: W
HStem: -250 100<363 540> 192 120<20 75> 650 100<365 540>
VStem: 195 120<-100 76 427 600>
LayerCount: 2
Fore
SplineSet
540 -150 m 25
 540 -250 l 25
 310 -250 l 25
 195 -135 l 25
 195 76 l 1
 75 192 l 1
 20 192 l 1
 20 312 l 1
 75 312 l 1
 195 427 l 1
 195 635 l 25
 310 750 l 25
 540 750 l 25
 540 650 l 25
 365 650 l 25
 315 600 l 25
 315 412 l 25
 140 251 l 25
 315 89 l 25
 315 -100 l 25
 363 -150 l 25
 540 -150 l 25
EndSplineSet
Validated: 1
EndChar

StartChar: bar
Encoding: 124 124 92
Width: 600
GlyphClass: 2
Flags: W
HStem: 680 20G<225 375>
VStem: 225 150<-210 205 285 700>
LayerCount: 2
Fore
SplineSet
375 205 m 1
 375 -210 l 1
 225 -210 l 1
 225 205 l 1
 375 205 l 1
375 700 m 1
 375 285 l 1
 225 285 l 1
 225 700 l 1
 375 700 l 1
EndSplineSet
Validated: 1
EndChar

StartChar: braceright
Encoding: 125 125 93
Width: 600
GlyphClass: 2
Flags: W
HStem: -250 100<60 237> 192 120<525 580> 650 100<60 235>
VStem: 285 120<-100 76 427 600>
LayerCount: 2
Fore
SplineSet
60 -150 m 25
 237 -150 l 25
 285 -100 l 25
 285 89 l 25
 460 251 l 29
 285 412 l 25
 285 600 l 25
 235 650 l 25
 60 650 l 25
 60 750 l 25
 290 750 l 25
 405 635 l 25
 405 427 l 1
 525 312 l 1
 580 312 l 1
 580 192 l 1
 525 192 l 1
 405 76 l 1
 405 -135 l 25
 290 -250 l 25
 60 -250 l 25
 60 -150 l 25
EndSplineSet
Validated: 1
EndChar

StartChar: asciitilde
Encoding: 126 126 94
Width: 600
GlyphClass: 2
Flags: W
HStem: 84 130<402 472> 284 130<134 204>
LayerCount: 2
Fore
SplineSet
522 264 m 5
 582 154 l 5
 512 84 l 5
 356 84 l 5
 204 284 l 5
 134 284 l 5
 84 234 l 5
 18 344 l 5
 88 414 l 5
 250 414 l 5
 402 214 l 5
 472 214 l 5
 522 264 l 5
EndSplineSet
Validated: 1
EndChar
